:SAMPLES-PER-SECOND 30
:FULLY-SPECIFIED
:DEGREES
155
root  -4.00614 40.6514 2.97524 161.95 -71.0476 -165.262
RightUpLeg  3.58948 -0.400986 -0.400986
RightLeg  2.74248 -7.66364 0.284415
RightFoot  -0.330631 -0.7601 7.84948
RightToes  -3.1126e-008 1.75238e-005 3.56266e-009
Spine  -6.54157 -2.37957 -10.8853
Spine1  17.934 -3.86954 5.05325
HEad  -23.8198 -19.1895 14.103
LeftShoulder1  3.06626 -5.49077 -28.0384
LeftArm  -56.7951 15.9446 -46.864
LeftForeArm  52.9922 2.01389 12.5282
LeftHand  0.324113 9.2329 10.7841
RightShoulder  1.9556 3.34272 22.3381
RightArm  -12.9474 -26.6477 49.628
RightForeArm  28.6753 31.352 5.35624
RightHand  0.179024 3.03683 2.40882
LeftUpLeg  8.29845 3.17262 1.12232
LeftLeg  3.11742 29.3399 1.1691
LeftFoot  -6.93724 0.0285547 0.342101
LeftToes  4.78349e-008 1.46828e-008 1.33736e-009
156
root  -4.09184 40.6822 2.78447 161.993 -71.5112 -164.894
RightUpLeg  3.85358 -0.192171 -0.0997244
RightLeg  1.89358 -8.46228 0.403458
RightFoot  -0.236317 -0.717077 7.34893
RightToes  -3.1126e-008 1.75238e-005 3.56266e-009
Spine  -6.6017 -2.28225 -11.7367
Spine1  18.3584 -4.30716 6.90881
HEad  -23.2691 -15.7352 12.2308
LeftShoulder1  2.77925 -4.75809 -27.5488
LeftArm  -54.8164 27.9493 -49.8603
LeftForeArm  64.123 -3.74435 8.64551
LeftHand  0.0230003 4.32914 1.09676
RightShoulder  2.24647 3.88311 24.3348
RightArm  -17.8334 -27.6524 50.8555
RightForeArm  41.5967 17.5044 4.19184
RightHand  0.866839 2.30777 12.9192
LeftUpLeg  8.21619 3.18743 1.4183
LeftLeg  2.69594 28.7804 0.930181
LeftFoot  -6.77016 0.0300048 0.269398
LeftToes  4.78349e-008 1.46828e-008 1.33736e-009
157
root  -4.2113 40.7022 2.61975 162.591 -71.5838 -165.079
RightUpLeg  4.01162 -0.157288 0.0138573
RightLeg  1.1918 -8.63602 0.581862
RightFoot  -0.243092 -0.672253 6.89341
RightToes  -3.1126e-008 1.75238e-005 3.56266e-009
Spine  -7.49265 -1.30576 -11.0837
Spine1  19.5736 -3.47967 7.44525
HEad  -24.825 -13.9127 10.6314
LeftShoulder1  1.95414 -2.59672 -25.8202
LeftArm  -51.6468 36.552 -52.4879
LeftForeArm  78.204 -7.69712 5.05622
LeftHand  -0.0566434 -5.19668 0.17682
RightShoulder  2.25864 3.58974 25.8143
RightArm  -37.4277 -33.2309 54.5499
RightForeArm  54.3993 12.2062 3.79969
RightHand  0.81356 -0.0921132 17.4826
LeftUpLeg  8.20912 3.14327 1.52552
LeftLeg  2.23466 28.7932 0.708167
LeftFoot  -6.63178 0.0362002 0.089418
LeftToes  4.78349e-008 1.46828e-008 1.33736e-009
158
root  -4.31125 40.7136 2.46176 162.827 -71.8578 -164.921
RightUpLeg  4.23629 -0.0335714 0.248658
RightLeg  0.420117 -9.18985 0.684498
RightFoot  -0.299598 -0.628768 6.47653
RightToes  -3.1126e-008 1.75238e-005 3.56266e-009
Spine  -8.0017 -0.504949 -10.2341
Spine1  19.8852 -2.67217 7.49499
HEad  -25.9007 -11.0835 9.02097
LeftShoulder1  1.04226 -0.0315255 -23.1553
LeftArm  -48.4262 43.6876 -54.2629
LeftForeArm  84.3074 -9.59873 1.1922
LeftHand  -0.727522 -8.0335 6.90859
RightShoulder  2.11422 3.13954 25.808
RightArm  -44.032 -40.6095 60.6959
RightForeArm  53.9893 12.6798 1.74715
RightHand  0.593861 -1.08371 16.3465
LeftUpLeg  8.04331 3.06683 1.65521
LeftLeg  2.08073 28.5708 0.718631
LeftFoot  -6.59068 0.0431679 -0.0847972
LeftToes  4.78349e-008 1.46828e-008 1.33736e-009
159
root  -4.42801 40.7264 2.29064 162.809 -72.4551 -164.645
RightUpLeg  4.70671 -0.014423 0.410311
RightLeg  -0.393127 -9.87352 0.842334
RightFoot  -0.454655 -0.595475 6.20915
RightToes  -3.1126e-008 1.75238e-005 3.56266e-009
Spine  -9.03398 -0.378804 -10.0155
Spine1  20.8404 -2.54183 7.55732
HEad  -25.9489 -7.99508 7.6279
LeftShoulder1  0.415363 1.96674 -20.7487
LeftArm  -44.942 51.7962 -56.7522
LeftForeArm  79.9352 -14.3752 -2.99493
LeftHand  -0.987972 -4.83974 11.5187
RightShoulder  2.00343 2.79761 25.779
RightArm  -48.0815 -46.0421 65.0152
RightForeArm  51.5716 12.4251 1.523
RightHand  0.666728 -0.0537846 14.4784
LeftUpLeg  8.04151 2.98271 1.78809
LeftLeg  1.90873 28.0255 0.729975
LeftFoot  -6.53995 0.056765 -0.415727
LeftToes  4.78349e-008 1.46828e-008 1.33736e-009
160
root  -4.53085 40.7328 2.13842 162.709 -73.1513 -164.538
RightUpLeg  5.20186 -0.0553528 0.504151
RightLeg  -0.796066 -10.5569 0.875218
RightFoot  -0.720912 -0.555152 5.91415
RightToes  -3.1126e-008 1.75238e-005 3.56266e-009
Spine  -9.83587 -0.618519 -9.66499
Spine1  21.7302 -2.67166 7.1593
HEad  -24.8818 -4.46613 6.69712
LeftShoulder1  0.200115 2.71756 -18.9256
LeftArm  -38.7322 59.0601 -60.7611
LeftForeArm  65.2702 -19.6816 -3.85626
LeftHand  -0.749519 -1.56277 12.4787
RightShoulder  2.00797 2.93379 25.1477
RightArm  -49.6074 -50.7353 68.4939
RightForeArm  46.5247 13.5575 2.69316
RightHand  0.736271 0.340033 14.8687
LeftUpLeg  8.33454 2.9573 1.88107
LeftLeg  1.56143 27.3401 0.579494
LeftFoot  -6.46642 0.0642508 -0.596
LeftToes  4.78349e-008 1.46828e-008 1.33736e-009
